<svg xmlns="http://www.w3.org/2000/svg" width="14.979" height="11.322" viewBox="0 0 14.979 11.322">
  <g id="wifi" transform="translate(0 -0.022)">
    <path id="Path" d="M.234,2.092A.8.8,0,0,0,1.37,3.227a5.55,5.55,0,0,1,7.84,0,.8.8,0,1,0,1.133-1.136A7.152,7.152,0,0,0,.234,2.092Z" transform="translate(2.201 3.133)" fill="#1e2d3e"/>
    <path id="Path-2" data-name="Path" d="M.234,1.193A.8.8,0,0,0,1.37,2.329a2.476,2.476,0,0,1,3.5,0A.8.8,0,0,0,6,1.2,4.08,4.08,0,0,0,.234,1.193Z" transform="translate(4.368 6.199)" fill="#1e2d3e"/>
    <circle id="Oval" cx="1.068" cy="1.068" r="1.068" transform="translate(6.421 9.207)" fill="#1e2d3e"/>
    <path id="Path-3" data-name="Path" d="M14.744,3A10.276,10.276,0,0,0,.234,3,.8.8,0,0,0,1.37,4.134a8.663,8.663,0,0,1,12.242,0A.8.8,0,0,0,14.744,3Z" transform="translate(0 0.022)" fill="#1e2d3e"/>
  </g>
</svg>
